<?xml version="1.0" encoding="utf-8"?><svg xmlns="http://www.w3.org/2000/svg" xmlns:xlink="http://www.w3.org/1999/xlink"><symbol viewBox="0 0 20 20" id="budget" xmlns="http://www.w3.org/2000/svg"><g clip-path="url(#aa)" stroke-opacity=".6" stroke-width="2" stroke-linecap="round" stroke-linejoin="round"><path d="M10 .833v18.334m4.167-15h-6.25a2.917 2.917 0 100 5.833h4.166a2.917 2.917 0 110 5.833H5"/></g><defs><clipPath id="aa"><path d="M0 0h20v20H0z"/></clipPath></defs></symbol><symbol viewBox="0 0 20 20" id="location" xmlns="http://www.w3.org/2000/svg"><g clip-path="url(#ba)" stroke-opacity=".6" stroke-width="2" stroke-linecap="round" stroke-linejoin="round"><path d="M17.5 8.5c0 5.833-7.5 10.833-7.5 10.833s-7.5-5-7.5-10.833a7.5 7.5 0 0115 0z"/><path d="M10 10.833a2.5 2.5 0 100-5 2.5 2.5 0 000 5z"/></g><defs><clipPath id="ba"><path d="M0 0h20v20H0z"/></clipPath></defs></symbol><symbol viewBox="0 0 20 20" id="type" xmlns="http://www.w3.org/2000/svg"><path d="M2.5 7.5L10 1.667 17.5 7.5v9.167a1.667 1.667 0 01-1.667 1.666H4.167A1.667 1.667 0 012.5 16.667V7.5z"/><path d="M7.5 18.333V10h5v8.333"/></symbol></svg>