<?xml version="1.0" encoding="utf-8"?><svg xmlns="http://www.w3.org/2000/svg" xmlns:xlink="http://www.w3.org/1999/xlink"><symbol viewBox="0 0 50 50" id="arch-interior" xmlns="http://www.w3.org/2000/svg"><path d="M16.764 18.85a4.674 4.674 0 004.67-4.669 4.674 4.674 0 00-4.67-4.668 4.674 4.674 0 00-4.668 4.668 4.674 4.674 0 004.668 4.67zm0-6.408c.96 0 1.74.78 1.74 1.74 0 .959-.78 1.739-1.74 1.739-.959 0-1.739-.78-1.739-1.74 0-.958.78-1.738 1.74-1.738z"/><path d="M27.098 14.182c0-5.2-3.862-9.515-8.868-10.229V0H15.3v3.953c-5.006.714-8.868 5.028-8.868 10.229l.002 13.258H3.419v2.93h3.015v12.55l5.86 4.16V50h2.929V30.37h3.084V50h2.93v-2.92l5.859-4.161V30.37h3.015v-2.93h-3.015l.002-13.258zM16.765 6.779c4.082 0 7.403 3.32 7.403 7.403 0 4.082-3.321 7.403-7.403 7.403-4.082 0-7.403-3.321-7.403-7.403 0-4.082 3.32-7.403 7.403-7.403zM9.364 41.406V21.384a10.384 10.384 0 002.93 2.112v19.99l-2.93-2.08zm5.859-13.965v-3.042a10.371 10.371 0 003.084 0v3.041h-3.084zm6.013 16.045v-19.99a10.384 10.384 0 002.93-2.112v20.022l-2.93 2.08zM33.477 0v50h13.107V0H33.477zm10.177 47.07h-7.247v-3.085h3.623v-2.93h-3.623v-2.93h3.623v-2.929h-3.623v-2.93h3.623v-2.93h-3.623v-2.929h3.623v-2.93h-3.623v-2.93h3.623v-2.929h-3.623v-2.93h3.623v-2.93h-3.623v-2.93h3.623V5.9h-3.623V2.93h7.247v44.14z"/></symbol><symbol viewBox="0 0 12 7" id="arrow-down" xmlns="http://www.w3.org/2000/svg"><path d="M1.5 1L6 5.042 10.5 1"/></symbol><symbol viewBox="0 0 20 20" id="budget" xmlns="http://www.w3.org/2000/svg"><g clip-path="url(#ca)" stroke-opacity=".6" stroke-width="2" stroke-linecap="round" stroke-linejoin="round"><path d="M10 .833v18.334m4.167-15h-6.25a2.917 2.917 0 100 5.833h4.166a2.917 2.917 0 110 5.833H5"/></g><defs><clipPath id="ca"><path d="M0 0h20v20H0z"/></clipPath></defs></symbol><symbol viewBox="0 0 24 24" id="dark-icon" xmlns="http://www.w3.org/2000/svg"><g data-name="Layer 2"><path d="M12.3 22h-.1a10.31 10.31 0 01-7.34-3.15 10.46 10.46 0 01-.26-14 10.13 10.13 0 014-2.74 1 1 0 011.06.22 1 1 0 01.24 1 8.4 8.4 0 001.94 8.81 8.47 8.47 0 008.83 1.94 1 1 0 011.27 1.29A10.16 10.16 0 0119.6 19a10.28 10.28 0 01-7.3 3z" data-name="moon"/></g></symbol><symbol viewBox="0 0 50 50" id="design" xmlns="http://www.w3.org/2000/svg"><path d="M44.531 0H5.47A5.377 5.377 0 00.098 5.371v33.3a5.377 5.377 0 005.37 5.372h.489v4.492a1.465 1.465 0 002.93 0v-25h11.718v2.93h-4.394a1.465 1.465 0 000 2.93h4.395v2.93H13.28a1.465 1.465 0 000 2.929h7.324v2.93H16.21a1.465 1.465 0 000 2.93h4.395v2.929H13.28a1.465 1.465 0 000 2.93h7.324v1.562a1.465 1.465 0 002.93 0v-4.492h5.86v4.492a1.465 1.465 0 002.93 0v-16.21h2.929v16.21a1.465 1.465 0 002.93 0v-16.21h2.93v16.21a1.465 1.465 0 002.929 0v-4.492h.488a5.377 5.377 0 005.371-5.371v-33.3A5.377 5.377 0 0044.532 0zM5.47 2.93h39.06a2.444 2.444 0 012.442 2.441v6.445H3.027V5.371A2.444 2.444 0 015.47 2.93zm27.266 26.465l3.984-4.98 3.983 4.98h-7.967zm11.796 11.718h-.488V29.395c0-.333-.113-.656-.321-.915l-5.86-7.325a1.465 1.465 0 00-2.287 0l-5.86 7.325c-.207.26-.32.582-.32.915v11.718h-5.86V22.07c0-.809-.656-1.465-1.465-1.465H7.422c-.81 0-1.465.656-1.465 1.465v19.043h-.488a2.444 2.444 0 01-2.442-2.441V14.746h43.946v23.926a2.444 2.444 0 01-2.442 2.441z"/><path d="M36.719 8.887a1.465 1.465 0 100-2.93 1.465 1.465 0 000 2.93zm5.859 0a1.465 1.465 0 100-2.93 1.465 1.465 0 000 2.93zm-11.718 0a1.465 1.465 0 100-2.93 1.465 1.465 0 000 2.93z"/></symbol><symbol viewBox="0 0 64 64" id="light-icon" xmlns="http://www.w3.org/2000/svg"><defs><style>.fcls-1{fill:#ffef3f}</style></defs><g id="fSun"><circle class="fcls-1" cx="32" cy="32" r="13.55"/><path class="fcls-1" d="M32 4a1.81 1.81 0 011.81 1.81v4.46a1.81 1.81 0 01-3.62 0V5.81A1.81 1.81 0 0132 4zm0 47.92a1.81 1.81 0 011.81 1.81v4.46a1.81 1.81 0 01-3.62 0v-4.46A1.81 1.81 0 0132 51.92zM60 32a1.81 1.81 0 01-1.81 1.81h-4.46a1.81 1.81 0 110-3.62h4.46A1.81 1.81 0 0160 32zm-47.92 0a1.81 1.81 0 01-1.81 1.81H5.81a1.81 1.81 0 110-3.62h4.46A1.81 1.81 0 0112.08 32zM51.8 12.2a1.8 1.8 0 010 2.56l-3.16 3.15a1.8 1.8 0 01-2.55-2.55l3.15-3.16a1.8 1.8 0 012.56 0zM17.91 46.09a1.79 1.79 0 010 2.55l-3.15 3.16a1.81 1.81 0 01-2.56-2.56l3.16-3.15a1.79 1.79 0 012.55 0zM51.8 51.8a1.8 1.8 0 01-2.56 0l-3.15-3.16a1.8 1.8 0 012.55-2.55l3.16 3.15a1.8 1.8 0 010 2.56zM17.91 17.91a1.79 1.79 0 01-2.55 0l-3.16-3.15a1.81 1.81 0 012.56-2.56l3.15 3.16a1.79 1.79 0 010 2.55z"/></g></symbol><symbol viewBox="0 0 20 20" id="location" xmlns="http://www.w3.org/2000/svg"><g clip-path="url(#ga)" stroke-opacity=".6" stroke-width="2" stroke-linecap="round" stroke-linejoin="round"><path d="M17.5 8.5c0 5.833-7.5 10.833-7.5 10.833s-7.5-5-7.5-10.833a7.5 7.5 0 0115 0z"/><path d="M10 10.833a2.5 2.5 0 100-5 2.5 2.5 0 000 5z"/></g><defs><clipPath id="ga"><path d="M0 0h20v20H0z"/></clipPath></defs></symbol><symbol viewBox="0 0 93.934 93.934" id="modal-close" xmlns="http://www.w3.org/2000/svg"><path d="M80.178 13.757c-18.341-18.342-48.08-18.342-66.421 0-18.342 18.341-18.342 48.08 0 66.421 18.341 18.342 48.08 18.342 66.421 0 18.342-18.342 18.342-48.08 0-66.421zm-8.602 47.98l-9.838 9.838-14.771-14.77-14.771 14.77-9.838-9.838 14.77-14.771-14.77-14.771 9.838-9.838 14.771 14.771 14.771-14.771 9.838 9.838-14.77 14.772 14.77 14.77z"/></symbol><symbol viewBox="0 0 50 50" id="product" xmlns="http://www.w3.org/2000/svg"><g clip-path="url(#ia)"><path d="M14.746 23.633h2.93v2.93h-2.93v-2.93zm0-5.86h2.93v2.93h-2.93v-2.93zm23.438 20.508h2.93v2.93h-2.93v-2.93zm-23.438-8.789h2.93v2.93h-2.93v-2.93zm0 5.86h2.93v2.93h-2.93v-2.93z"/><path d="M46.973 47.07v-7.324c0-4.038-3.286-7.324-7.325-7.324-.501 0-.991.05-1.464.147V21.112l-5.86-1.953V6.055h-5.86V0h-2.929v6.055h-5.86v5.86H8.888v15.207l-5.86 2.93V47.07H0V50h50v-2.93h-3.027zm-2.93-7.324v7.324h-2.93v-2.93h-2.93v2.93h-2.93v-7.324a4.4 4.4 0 014.395-4.394 4.4 4.4 0 014.395 4.394zm-8.79-5.855a7.318 7.318 0 00-2.929 5.855v7.324h-2.93v-25.8l5.86 1.954V33.89zM5.958 47.07V31.861l2.93-1.464V47.07h-2.93zm14.648 0h-2.93v-5.86h-2.929v5.86h-2.93V14.843h8.79V47.07zm0-35.157v-2.93h8.79v9.198l-2.93-.976V47.07h-2.93V11.914h-2.93z"/></g><defs><clipPath id="ia"><path d="M0 0h50v50H0z"/></clipPath></defs></symbol><symbol viewBox="0 0 20 20" id="type" xmlns="http://www.w3.org/2000/svg"><path d="M2.5 7.5L10 1.667 17.5 7.5v9.167a1.667 1.667 0 01-1.667 1.666H4.167A1.667 1.667 0 012.5 16.667V7.5z"/><path d="M7.5 18.333V10h5v8.333"/></symbol></svg>