<svg width="24" height="24" fill="none" xmlns="http://www.w3.org/2000/svg"><path d="M19.823 23.363H4.177A3.443 3.443 0 01.75 19.927V8.317a3.435 3.435 0 011.8-3l7.808-4.267a3.427 3.427 0 013.277 0l7.83 4.245a3.435 3.435 0 011.8 3v11.632a3.443 3.443 0 01-3.442 3.436zM12 2.13c-.322 0-.64.08-.922.232l-7.83 4.253a1.935 1.935 0 00-.998 1.702v11.61a1.935 1.935 0 001.935 1.936h15.638a1.935 1.935 0 001.927-1.936V8.317a1.935 1.935 0 00-1.012-1.702L12.922 2.37A1.935 1.935 0 0012 2.13z" fill="#D6680F"/><path d="M21.105 5.955L13.282 1.71a2.685 2.685 0 00-2.565 0L2.895 5.955A2.685 2.685 0 001.5 8.317v11.61a2.685 2.685 0 002.685 2.685h15.637a2.685 2.685 0 002.678-2.685V8.317a2.685 2.685 0 00-1.395-2.362zm-4.688 10.5a4.5 4.5 0 01-8.835 0 .75.75 0 01.75-.863.75.75 0 01.75.623 3 3 0 005.873 0 .75.75 0 01.75-.623.75.75 0 01.712.84v.023z" fill="#D6680F"/></svg>