<svg width="50" height="50" fill="none" xmlns="http://www.w3.org/2000/svg"><path d="M16.764 18.85a4.674 4.674 0 004.67-4.669 4.674 4.674 0 00-4.67-4.668 4.674 4.674 0 00-4.668 4.668 4.674 4.674 0 004.668 4.67zm0-6.408c.96 0 1.74.78 1.74 1.74 0 .959-.78 1.739-1.74 1.739-.959 0-1.739-.78-1.739-1.74 0-.958.78-1.738 1.74-1.738z" fill="#61594D"/><path d="M27.098 14.182c0-5.2-3.862-9.515-8.868-10.229V0H15.3v3.953c-5.006.714-8.868 5.028-8.868 10.229l.002 13.258H3.419v2.93h3.015v12.55l5.86 4.16V50h2.929V30.37h3.084V50h2.93v-2.92l5.859-4.161V30.37h3.015v-2.93h-3.015l.002-13.258zM16.765 6.779c4.082 0 7.403 3.32 7.403 7.403 0 4.082-3.321 7.403-7.403 7.403-4.082 0-7.403-3.321-7.403-7.403 0-4.082 3.32-7.403 7.403-7.403zM9.364 41.406V21.384a10.384 10.384 0 002.93 2.112v19.99l-2.93-2.08zm5.859-13.965v-3.042a10.371 10.371 0 003.084 0v3.041h-3.084zm6.013 16.045v-19.99a10.384 10.384 0 002.93-2.112v20.022l-2.93 2.08zM33.477 0v50h13.107V0H33.477zm10.177 47.07h-7.247v-3.085h3.623v-2.93h-3.623v-2.93h3.623v-2.929h-3.623v-2.93h3.623v-2.93h-3.623v-2.929h3.623v-2.93h-3.623v-2.93h3.623v-2.929h-3.623v-2.93h3.623v-2.93h-3.623v-2.93h3.623V5.9h-3.623V2.93h7.247v44.14z" fill="#61594D"/></svg>