<?xml version="1.0" ?><svg viewBox="0 0 64 64" xmlns="http://www.w3.org/2000/svg"><defs><style>.cls-1{fill:#ffef3f;}</style></defs><g id="Sun"><circle class="cls-1" cx="32" cy="32" r="13.55"/><path class="cls-1" d="M32,4a1.81,1.81,0,0,1,1.81,1.81v4.46a1.81,1.81,0,0,1-3.62,0V5.81A1.81,1.81,0,0,1,32,4Z"/><path class="cls-1" d="M32,51.92a1.81,1.81,0,0,1,1.81,1.81v4.46a1.81,1.81,0,0,1-3.62,0V53.73A1.81,1.81,0,0,1,32,51.92Z"/><path class="cls-1" d="M60,32a1.81,1.81,0,0,1-1.81,1.81H53.73a1.81,1.81,0,1,1,0-3.62h4.46A1.81,1.81,0,0,1,60,32Z"/><path class="cls-1" d="M12.08,32a1.81,1.81,0,0,1-1.81,1.81H5.81a1.81,1.81,0,1,1,0-3.62h4.46A1.81,1.81,0,0,1,12.08,32Z"/><path class="cls-1" d="M51.8,12.2a1.8,1.8,0,0,1,0,2.56l-3.16,3.15a1.8,1.8,0,0,1-2.55-2.55l3.15-3.16A1.8,1.8,0,0,1,51.8,12.2Z"/><path class="cls-1" d="M17.91,46.09a1.79,1.79,0,0,1,0,2.55L14.76,51.8a1.81,1.81,0,0,1-2.56-2.56l3.16-3.15A1.79,1.79,0,0,1,17.91,46.09Z"/><path class="cls-1" d="M51.8,51.8a1.8,1.8,0,0,1-2.56,0l-3.15-3.16a1.8,1.8,0,0,1,2.55-2.55l3.16,3.15A1.8,1.8,0,0,1,51.8,51.8Z"/><path class="cls-1" d="M17.91,17.91a1.79,1.79,0,0,1-2.55,0L12.2,14.76a1.81,1.81,0,0,1,2.56-2.56l3.15,3.16A1.79,1.79,0,0,1,17.91,17.91Z"/></g></svg>