<svg width="50" height="50" viewBox="0 0 50 50" fill="none" xmlns="http://www.w3.org/2000/svg">
<g clip-path="url(#clip0_2_38)">
<path d="M14.7461 23.6328H17.6758V26.5625H14.7461V23.6328Z" fill="#61594D"/>
<path d="M14.7461 17.7734H17.6758V20.7031H14.7461V17.7734Z" fill="#61594D"/>
<path d="M38.1836 38.2812H41.1133V41.2109H38.1836V38.2812Z" fill="#61594D"/>
<path d="M14.7461 29.4922H17.6758V32.4219H14.7461V29.4922Z" fill="#61594D"/>
<path d="M14.7461 35.3516H17.6758V38.2812H14.7461V35.3516Z" fill="#61594D"/>
<path d="M46.9727 47.0703V39.7461C46.9727 35.7075 43.687 32.4219 39.6484 32.4219C39.1469 32.4219 38.657 32.4728 38.1836 32.5692V21.1121L32.3242 19.159V6.05469H26.4648V0H23.5352V6.05469H17.6758V11.9141H8.88672V27.122L3.02734 30.0517V47.0703H0V50H50V47.0703H46.9727ZM44.043 39.7461V47.0703H41.1133V44.1406H38.1836V47.0703H35.2539V39.7461C35.2539 37.3229 37.2253 35.3516 39.6484 35.3516C42.0716 35.3516 44.043 37.3229 44.043 39.7461ZM35.2539 33.8907C33.4762 35.2283 32.3242 37.3551 32.3242 39.7461V47.0703H29.3945V21.2707L35.2539 23.2238V33.8907ZM5.95703 47.0703V31.8624L8.88672 30.3976V47.0703H5.95703ZM20.6055 47.0703H17.6758V41.2109H14.7461V47.0703H11.8164V14.8438H20.6055V47.0703ZM20.6055 11.9141V8.98438H29.3945V18.1824L26.4648 17.2059V47.0703H23.5352V11.9141H20.6055Z" fill="#61594D"/>
</g>
<defs>
<clipPath id="clip0_2_38">
<rect width="50" height="50" fill="white"/>
</clipPath>
</defs>
</svg>
