<svg viewBox="0 0 64 64" xmlns="http://www.w3.org/2000/svg"><defs><style>.cls-1{fill:#ffef3f}</style></defs><g id="Sun"><circle class="cls-1" cx="32" cy="32" r="13.55"/><path class="cls-1" d="M32 4a1.81 1.81 0 011.81 1.81v4.46a1.81 1.81 0 01-3.62 0V5.81A1.81 1.81 0 0132 4zm0 47.92a1.81 1.81 0 011.81 1.81v4.46a1.81 1.81 0 01-3.62 0v-4.46A1.81 1.81 0 0132 51.92zM60 32a1.81 1.81 0 01-1.81 1.81h-4.46a1.81 1.81 0 110-3.62h4.46A1.81 1.81 0 0160 32zm-47.92 0a1.81 1.81 0 01-1.81 1.81H5.81a1.81 1.81 0 110-3.62h4.46A1.81 1.81 0 0112.08 32zM51.8 12.2a1.8 1.8 0 010 2.56l-3.16 3.15a1.8 1.8 0 01-2.55-2.55l3.15-3.16a1.8 1.8 0 012.56 0zM17.91 46.09a1.79 1.79 0 010 2.55l-3.15 3.16a1.81 1.81 0 01-2.56-2.56l3.16-3.15a1.79 1.79 0 012.55 0zM51.8 51.8a1.8 1.8 0 01-2.56 0l-3.15-3.16a1.8 1.8 0 012.55-2.55l3.16 3.15a1.8 1.8 0 010 2.56zM17.91 17.91a1.79 1.79 0 01-2.55 0l-3.16-3.15a1.81 1.81 0 012.56-2.56l3.15 3.16a1.79 1.79 0 010 2.55z"/></g></svg>