<svg width="249" height="222" fill="none" xmlns="http://www.w3.org/2000/svg"><path d="M124.5.222l2.105 51.087c1.288 31.255 29.175 56.321 63.93 57.464L249 110.694l-58.465 1.922c-34.755 1.143-62.642 26.208-63.93 57.463l-2.105 51.088-2.105-51.088c-1.288-31.255-29.175-56.32-63.93-57.463L0 110.694l58.465-1.921c34.755-1.143 62.642-26.209 63.93-57.464L124.5.222z" fill="#ECECEC"/><path d="M185.92 15.023l-26.58 45.19c-16.262 27.646-6.047 61.893 23.416 78.51l49.564 27.954-51.701-24.625c-30.734-14.639-68.82-5.471-87.312 21.018L63.08 206.366l26.58-45.189c16.262-27.647 6.047-61.894-23.416-78.511L16.68 54.712l51.7 24.625c30.735 14.638 68.821 5.47 87.313-21.018l30.227-43.296z" fill="#ECECEC"/><path d="M230.883 55.458l-48.144 27.184c-29.454 16.63-39.648 50.882-23.371 78.521l27.382 46.496-31.083-44.574c-18.478-26.497-56.559-35.683-87.3-21.058l-50.25 23.903 48.144-27.183c29.454-16.631 39.648-50.882 23.371-78.522L62.25 13.73l31.083 44.574c18.478 26.497 56.559 35.683 87.301 21.058l50.249-23.904z" fill="#ECECEC"/></svg>