<svg width="249" height="222" viewBox="0 0 249 222" fill="none" xmlns="http://www.w3.org/2000/svg">
<path d="M124.5 0.222168L126.605 51.3094C127.893 82.5644 155.78 107.63 190.535 108.773L249 110.694L190.535 112.616C155.78 113.759 127.893 138.824 126.605 170.079L124.5 221.167L122.395 170.079C121.107 138.824 93.2202 113.759 58.4655 112.616L0 110.694L58.4655 108.773C93.2202 107.63 121.107 82.5644 122.395 51.3094L124.5 0.222168Z" fill="#ECECEC"/>
<path d="M185.92 15.0226L159.34 60.2121C143.078 87.8589 153.293 122.106 182.756 138.723L232.32 166.677L180.619 142.052C149.885 127.413 111.799 136.581 93.3066 163.07L63.08 206.366L89.66 161.177C105.922 133.53 95.7073 99.2827 66.244 82.6656L16.6798 54.7118L68.3809 79.337C99.1145 93.9754 137.201 84.8071 155.693 58.3187L185.92 15.0226Z" fill="#ECECEC"/>
<path d="M230.883 55.4583L182.739 82.6416C153.285 99.2723 143.091 133.524 159.368 161.163L186.75 207.659L155.667 163.085C137.189 136.588 99.1081 127.402 68.3661 142.027L18.1174 165.93L66.2607 138.747C95.7146 122.116 105.909 87.8648 89.6321 60.2254L62.25 13.7298L93.3333 58.3037C111.811 84.8006 149.892 93.9865 180.634 79.3622L230.883 55.4583Z" fill="#ECECEC"/>
</svg>
