<svg version="1.0" xmlns="http://www.w3.org/2000/svg" width="32" height="32" viewBox="0 0 96 96"><path d="M26 11.1c-10.2 5.5-19.5 11-20.8 12.2C1.6 26.7 1 31.2 1 57.5c0 24 .1 25.3 2.3 29.5 4 8 4 8 44.5 8 39 0 40-.1 44.3-6.1 2.4-3.3 2.4-3.8 2.7-29.4.2-14.3.1-27.4-.3-29.2-.3-1.8-1.7-4.6-3.1-6.2C87.8 19.8 52.4 1 47.9 1 45.4 1 39.3 3.8 26 11.1zm10.9 56.2c5 10.3 17.7 10.4 22.2.1 1.6-3.4 2.5-4.4 4.4-4.4 7.3 0 .9 13.8-8.2 17.6-3.8 1.6-8.4 1.8-13.3.4-9-2.5-17.1-18-9.5-18 1.7 0 2.8 1.1 4.4 4.3z" fill="#d6680f"/></svg>