<svg display="none" xmlns:xlink = "http://www.w3.org/1999/xlink" xmlns="http://www.w3.org/2000/svg"  >
<symbol  viewBox="0 0 20 20" id="dollar-sign">
  <g clip-path="url(#clip0_2_108)">
    <path d="M10 0.833252V19.1666" stroke-opacity="0.6" stroke-width="2" stroke-linecap="round" stroke-linejoin="round"/>
    <path d="M14.1667 4.16675H7.91667C7.14312 4.16675 6.40125 4.47404 5.85427 5.02102C5.30729 5.568 5 6.30987 5 7.08342C5 7.85696 5.30729 8.59883 5.85427 9.14581C6.40125 9.69279 7.14312 10.0001 7.91667 10.0001H12.0833C12.8569 10.0001 13.5987 10.3074 14.1457 10.8544C14.6927 11.4013 15 12.1432 15 12.9167C15 13.6903 14.6927 14.4322 14.1457 14.9791C13.5987 15.5261 12.8569 15.8334 12.0833 15.8334H5" stroke-opacity="0.6" stroke-width="2" stroke-linecap="round" stroke-linejoin="round"/>
  </g>
  <defs>
    <clipPath id="clip0_2_108">
      <rect width="20" height="20" />
    </clipPath>
  </defs>
</symbol>
<symbol viewBox="0 0 20 20" id="home">
  <path d="M2.5 7.50008L10 1.66675L17.5 7.50008V16.6667C17.5 17.1088 17.3244 17.5327 17.0118 17.8453C16.6993 18.1578 16.2754 18.3334 15.8333 18.3334H4.16667C3.72464 18.3334 3.30072 18.1578 2.98816 17.8453C2.67559 17.5327 2.5 17.1088 2.5 16.6667V7.50008Z"  stroke-opacity="0.6" stroke-width="2" stroke-linecap="round" stroke-linejoin="round"/>
<path d="M7.5 18.3333V10H12.5V18.3333" stroke-opacity="0.6" stroke-width="2" stroke-linecap="round" stroke-linejoin="round"/>
</symbol>
<symbol viewBox="0 0 20 20"  id="location">
  <g clip-path="url(#clip0_2_98)">
    <path d="M17.5 8.5C17.5 14.3333 10 19.3333 10 19.3333C10 19.3333 2.5 14.3333 2.5 8.5C2.5 6.51088 3.29018 4.60322 4.6967 3.1967C6.10322 1.79018 8.01088 1 10 1C11.9891 1 13.8968 1.79018 15.3033 3.1967C16.7098 4.60322 17.5 6.51088 17.5 8.5Z" stroke-opacity="0.6" stroke-width="2" stroke-linecap="round" stroke-linejoin="round"/>
    <path d="M10 10.8333C11.3807 10.8333 12.5 9.71396 12.5 8.33325C12.5 6.95254 11.3807 5.83325 10 5.83325C8.61929 5.83325 7.5 6.95254 7.5 8.33325C7.5 9.71396 8.61929 10.8333 10 10.8333Z" stroke-opacity="0.6" stroke-width="2" stroke-linecap="round" stroke-linejoin="round"/>
  </g>
  <defs>
    <clipPath id="clip0_2_98">
      <rect width="20" height="20"/>
    </clipPath>
  </defs>
</symbol>
</svg>







