<svg width="24" height="24" viewBox="0 0 24 24" fill="none" xmlns="http://www.w3.org/2000/svg">
<path d="M19.8225 23.3625H4.1775C3.26839 23.3585 2.39776 22.9951 1.75562 22.3515C1.11348 21.708 0.751972 20.8366 0.75 19.9275V8.31745C0.753756 7.70201 0.922797 7.09887 1.23945 6.57112C1.5561 6.04337 2.00873 5.61039 2.55 5.31745L10.3575 1.04995C10.8603 0.776224 11.4237 0.632813 11.9962 0.632812C12.5688 0.632812 13.1322 0.776224 13.635 1.04995L21.465 5.29495C22.0063 5.58789 22.4589 6.02087 22.7756 6.54862C23.0922 7.07637 23.2612 7.67951 23.265 8.29496V19.9275C23.263 20.8392 22.8994 21.7129 22.2541 22.3568C21.6087 23.0008 20.7342 23.3625 19.8225 23.3625ZM12 2.12995C11.6779 2.12948 11.3609 2.20939 11.0775 2.36245L3.2475 6.61495C2.9438 6.78315 2.69094 7.02996 2.51543 7.3295C2.33993 7.62905 2.24825 7.97029 2.25 8.31745V19.9275C2.25 20.4406 2.45387 20.9328 2.81675 21.2957C3.17963 21.6586 3.67181 21.8625 4.185 21.8625H19.8225C20.3344 21.8605 20.8246 21.6557 21.1859 21.2931C21.5472 20.9304 21.75 20.4394 21.75 19.9275V8.31745C21.7503 7.96878 21.6563 7.62651 21.4781 7.32682C21.2999 7.02714 21.044 6.78118 20.7375 6.61495L12.9225 2.36995C12.6398 2.21428 12.3227 2.13178 12 2.12995Z" fill="#D6680F"/>
<path d="M21.1048 5.95489L13.2823 1.70989C12.8887 1.49589 12.4478 1.38379 11.9998 1.38379C11.5518 1.38379 11.1109 1.49589 10.7173 1.70989L2.89477 5.95489C2.4713 6.18686 2.11823 6.52874 1.87273 6.94451C1.62723 7.36027 1.49838 7.83455 1.49977 8.31739V19.9274C1.49977 20.6395 1.78265 21.3224 2.28619 21.826C2.78972 22.3295 3.47266 22.6124 4.18477 22.6124H19.8223C20.5331 22.6104 21.2141 22.3266 21.716 21.8233C22.2179 21.32 22.4998 20.6382 22.4998 19.9274V8.31739C22.5012 7.83455 22.3723 7.36027 22.1268 6.94451C21.8813 6.52874 21.5282 6.18686 21.1048 5.95489ZM16.4173 16.4549C16.2182 17.4804 15.6685 18.4046 14.8625 19.0692C14.0565 19.7337 13.0444 20.0972 11.9998 20.0972C10.9551 20.0972 9.94305 19.7337 9.13706 19.0692C8.33106 18.4046 7.78138 17.4804 7.58227 16.4549C7.56595 16.3474 7.5732 16.2376 7.60352 16.1332C7.63383 16.0288 7.68648 15.9322 7.75782 15.8502C7.82916 15.7682 7.91749 15.7026 8.01668 15.6581C8.11587 15.6136 8.22355 15.5912 8.33227 15.5924C8.51094 15.5898 8.68467 15.6511 8.82217 15.7652C8.95967 15.8793 9.05191 16.0388 9.08227 16.2149C9.22352 16.8891 9.59247 17.4941 10.1272 17.9284C10.6618 18.3627 11.3297 18.5997 12.0185 18.5997C12.7073 18.5997 13.3752 18.3627 13.9099 17.9284C14.4446 17.4941 14.8135 16.8891 14.9548 16.2149C14.9851 16.0388 15.0774 15.8793 15.2149 15.7652C15.3524 15.6511 15.5261 15.5898 15.7048 15.5924C15.8081 15.5968 15.9094 15.6225 16.0024 15.668C16.0953 15.7135 16.1778 15.7777 16.2447 15.8566C16.3116 15.9355 16.3615 16.0273 16.3912 16.1264C16.4209 16.2255 16.4298 16.3297 16.4173 16.4324V16.4549Z" fill="#D6680F"/>
</svg>
