<svg width="119" height="24" fill="none" xmlns="http://www.w3.org/2000/svg"><path d="M34.165 22.735l1.103-3.308H42.1l1.103 3.308h5.3L42.126 5h-6.752L29 22.735h5.165zm3.308-9.873l1.21-4.447 1.211 4.447.861 2.594h-4.143l.861-2.594zm16.565 9.873v-6.59c0-2.118 1.023-3.15 2.126-3.15.78 0 1.102.502 1.102 1.243 0 .794-.538 1.8-1.022 2.356h4.439c.376-.662.914-2.012.914-3.6 0-2.17-.86-3.6-3.174-3.6-2.717 0-3.981 2.435-4.385 4.685V9.66h-4.841v13.076h4.841zM69.127 23c2.959 0 5.272-1.509 6.213-3.52l-3.766-2.436c-.376 1.35-1.075 2.012-2.232 2.012-1.264 0-2.206-.874-2.206-2.859 0-1.985.942-2.859 2.206-2.859 1.13 0 1.856.662 2.232 2.012l3.766-2.435c-.941-2.012-3.255-3.52-6.213-3.52-4.25 0-6.914 2.91-6.914 6.802 0 3.891 2.663 6.803 6.914 6.803zm12.258-.265v-7.12c0-2.118.35-2.62 1.748-2.62 1.453 0 1.748.846 1.748 2.434v7.306h4.842v-9.159c0-2.673-1.506-4.182-3.98-4.182-2.771 0-3.982 1.985-4.358 4.156V5h-4.842v17.735h4.841zM98.316 23c3.039 0 4.788-1.27 5.81-2.568l-2.932-2.753c-.511 1.139-1.48 1.51-2.797 1.51-1.346 0-2.395-.45-2.69-1.721h8.527c.08-.318.134-1.297.134-1.933 0-3.15-1.963-6.14-6.51-6.14-4.061 0-6.644 2.832-6.644 6.802 0 3.97 2.529 6.803 7.102 6.803zm-.43-10.059c1.452 0 2.07.741 2.151 2.065h-4.411c.108-1.377.941-2.065 2.26-2.065zM112.948 23c3.039 0 4.788-1.27 5.81-2.568l-2.932-2.753c-.511 1.139-1.48 1.51-2.798 1.51-1.345 0-2.394-.45-2.69-1.721h8.528c.08-.318.134-1.297.134-1.933 0-3.15-1.964-6.14-6.51-6.14-4.061 0-6.644 2.832-6.644 6.802 0 3.97 2.529 6.803 7.102 6.803zm-.431-10.059c1.453 0 2.071.741 2.152 2.065h-4.411c.107-1.377.941-2.065 2.259-2.065z" fill="#2C2321"/><path d="M19.823 23.363H4.177A3.443 3.443 0 01.75 19.927V8.317a3.435 3.435 0 011.8-3l7.808-4.267a3.427 3.427 0 013.277 0l7.83 4.245a3.435 3.435 0 011.8 3v11.632a3.443 3.443 0 01-3.442 3.436zM12 2.13c-.322 0-.64.08-.922.232l-7.83 4.253a1.935 1.935 0 00-.998 1.702v11.61a1.935 1.935 0 001.935 1.936h15.638a1.935 1.935 0 001.927-1.936V8.317a1.935 1.935 0 00-1.012-1.702L12.922 2.37A1.935 1.935 0 0012 2.13z" fill="#D6680F"/><path d="M21.105 5.955L13.282 1.71a2.685 2.685 0 00-2.565 0L2.895 5.955A2.685 2.685 0 001.5 8.317v11.61a2.685 2.685 0 002.685 2.685h15.637a2.685 2.685 0 002.678-2.685V8.317a2.685 2.685 0 00-1.395-2.362zm-4.688 10.5a4.5 4.5 0 01-8.835 0 .75.75 0 01.75-.863.75.75 0 01.75.623 3 3 0 005.873 0 .75.75 0 01.75-.623.75.75 0 01.712.84v.023z" fill="#D6680F"/></svg>