<svg width="50" height="50" fill="none" xmlns="http://www.w3.org/2000/svg"><path d="M44.531 0H5.47A5.377 5.377 0 00.098 5.371v33.3a5.377 5.377 0 005.37 5.372h.489v4.492a1.465 1.465 0 002.93 0v-25h11.718v2.93h-4.394a1.465 1.465 0 000 2.93h4.395v2.93H13.28a1.465 1.465 0 000 2.929h7.324v2.93H16.21a1.465 1.465 0 000 2.93h4.395v2.929H13.28a1.465 1.465 0 000 2.93h7.324v1.562a1.465 1.465 0 002.93 0v-4.492h5.86v4.492a1.465 1.465 0 002.93 0v-16.21h2.929v16.21a1.465 1.465 0 002.93 0v-16.21h2.93v16.21a1.465 1.465 0 002.929 0v-4.492h.488a5.377 5.377 0 005.371-5.371v-33.3A5.377 5.377 0 0044.532 0zM5.47 2.93h39.06a2.444 2.444 0 012.442 2.441v6.445H3.027V5.371A2.444 2.444 0 015.47 2.93zm27.266 26.465l3.984-4.98 3.983 4.98h-7.967zm11.796 11.718h-.488V29.395c0-.333-.113-.656-.321-.915l-5.86-7.325a1.465 1.465 0 00-2.287 0l-5.86 7.325c-.207.26-.32.582-.32.915v11.718h-5.86V22.07c0-.809-.656-1.465-1.465-1.465H7.422c-.81 0-1.465.656-1.465 1.465v19.043h-.488a2.444 2.444 0 01-2.442-2.441V14.746h43.946v23.926a2.444 2.444 0 01-2.442 2.441z" fill="#61594D"/><path d="M36.719 8.887a1.465 1.465 0 100-2.93 1.465 1.465 0 000 2.93zm5.859 0a1.465 1.465 0 100-2.93 1.465 1.465 0 000 2.93zm-11.718 0a1.465 1.465 0 100-2.93 1.465 1.465 0 000 2.93z" fill="#61594D"/></svg>