<svg width="50" height="50" fill="none" xmlns="http://www.w3.org/2000/svg"><g clip-path="url(#clip0_2_38)" fill="#61594D"><path d="M14.746 23.633h2.93v2.93h-2.93v-2.93zm0-5.86h2.93v2.93h-2.93v-2.93zm23.438 20.508h2.93v2.93h-2.93v-2.93zm-23.438-8.789h2.93v2.93h-2.93v-2.93zm0 5.86h2.93v2.93h-2.93v-2.93z"/><path d="M46.973 47.07v-7.324c0-4.038-3.286-7.324-7.325-7.324-.501 0-.991.05-1.464.147V21.112l-5.86-1.953V6.055h-5.86V0h-2.929v6.055h-5.86v5.86H8.888v15.207l-5.86 2.93V47.07H0V50h50v-2.93h-3.027zm-2.93-7.324v7.324h-2.93v-2.93h-2.93v2.93h-2.93v-7.324a4.4 4.4 0 014.395-4.394 4.4 4.4 0 014.395 4.394zm-8.79-5.855a7.318 7.318 0 00-2.929 5.855v7.324h-2.93v-25.8l5.86 1.954V33.89zM5.958 47.07V31.861l2.93-1.464V47.07h-2.93zm14.648 0h-2.93v-5.86h-2.929v5.86h-2.93V14.843h8.79V47.07zm0-35.157v-2.93h8.79v9.198l-2.93-.976V47.07h-2.93V11.914h-2.93z"/></g><defs><clipPath id="clip0_2_38"><path fill="#fff" d="M0 0h50v50H0z"/></clipPath></defs></svg>